<svg xmlns="http://www.w3.org/2000/svg" viewBox="0 0 72 90" shape-rendering="crispEdges">

  <!-- Hat crown -->
  <rect x="12" y="0"  width="48" height="18" fill="#1e3a8a"/>
  <rect x="24" y="6"  width="24" height="6"  fill="#fbbf24"/>
  <!-- Hat brim -->
  <rect x="6"  y="18" width="60" height="6"  fill="#1e3a8a"/>

  <!-- Head -->
  <rect x="12" y="24" width="48" height="6"  fill="#fde68a"/>
  <rect x="6"  y="30" width="60" height="18" fill="#fde68a"/>
  <!-- Eyes -->
  <rect x="18" y="36" width="6"  height="6"  fill="#111827"/>
  <rect x="48" y="36" width="6"  height="6"  fill="#111827"/>
  <!-- Eye shine -->
  <rect x="24" y="36" width="6"  height="6"  fill="#ffffff"/>
  <rect x="54" y="36" width="6"  height="6"  fill="#ffffff"/>
  <!-- Cheeks -->
  <rect x="6"  y="42" width="12" height="6"  fill="#fca5a5"/>
  <rect x="54" y="42" width="12" height="6"  fill="#fca5a5"/>
  <!-- Smile -->
  <rect x="6"  y="48" width="60" height="6"  fill="#fde68a"/>
  <rect x="24" y="48" width="24" height="6"  fill="#111827"/>
  <!-- Chin -->
  <rect x="12" y="54" width="48" height="6"  fill="#fde68a"/>

  <!-- Body: left arm raised, right arm lowered -->
  <rect x="0"  y="60" width="72" height="6"  fill="#1e3a8a"/>
  <rect x="0"  y="57" width="6"  height="6"  fill="#fde68a"/>
  <rect x="66" y="63" width="6"  height="6"  fill="#fde68a"/>
  <!-- Chest -->
  <rect x="0"  y="66" width="72" height="6"  fill="#1e3a8a"/>
  <rect x="24" y="66" width="24" height="6"  fill="#fbbf24"/>
  <!-- Belt -->
  <rect x="0"  y="72" width="72" height="6"  fill="#78350f"/>
  <rect x="30" y="72" width="12" height="6"  fill="#fbbf24"/>
  <!-- Lower body -->
  <rect x="0"  y="78" width="72" height="6"  fill="#1e3a8a"/>

  <!-- Legs: left foot forward, right foot back -->
  <rect x="6"  y="84" width="18" height="6"  fill="#1e3a8a"/>
  <rect x="48" y="84" width="12" height="6"  fill="#1e3a8a"/>

</svg>
